<svg width="128" height="32" viewBox="0 0 128 32" fill="none" xmlns="http://www.w3.org/2000/svg">
<path d="M15.3796 32C23.8735 32 30.7592 24.8365 30.7592 16C30.7592 7.16346 23.8735 0 15.3796 0C6.88568 0 0 7.16346 0 16C0 24.8365 6.88568 32 15.3796 32Z" fill="#59B53B"/>
<path d="M12.326 8.72656H15.3794L11.2011 23.7569H8.38867L12.326 8.72656ZM19.3167 8.72656H22.3702L18.4328 23.7569H15.3794L19.3167 8.72656Z" fill="white"/>
<path d="M12.326 8.72656H15.3794L11.2011 23.7569H8.38867L12.326 8.72656ZM19.3167 8.72656H22.3702L18.4328 23.7569H15.3794L19.3167 8.72656Z" fill="white"/>
<path d="M40.321 21.6234C40.405 21.6374 40.524 21.6514 40.678 21.6654C40.832 21.6794 41.007 21.6934 41.203 21.7074C41.399 21.7074 41.602 21.7144 41.812 21.7284C42.036 21.7284 42.246 21.7284 42.442 21.7284C42.848 21.7284 43.233 21.7004 43.597 21.6444C43.975 21.5884 44.297 21.4904 44.563 21.3504C44.843 21.2104 45.06 21.0284 45.214 20.8044C45.382 20.5664 45.466 20.2654 45.466 19.9014C45.466 19.5514 45.389 19.2644 45.235 19.0404C45.095 18.8024 44.899 18.6134 44.647 18.4734C44.395 18.3334 44.094 18.2354 43.744 18.1794C43.408 18.1234 43.044 18.0954 42.652 18.0954H40.321V21.6234ZM42.4 16.6464C42.778 16.6464 43.121 16.6254 43.429 16.5834C43.751 16.5274 44.024 16.4364 44.248 16.3104C44.486 16.1844 44.668 16.0164 44.794 15.8064C44.934 15.5964 45.004 15.3304 45.004 15.0084C45.004 14.6724 44.92 14.4064 44.752 14.2104C44.584 14.0144 44.36 13.8674 44.08 13.7694C43.814 13.6574 43.506 13.5874 43.156 13.5594C42.82 13.5174 42.477 13.4964 42.127 13.4964C41.805 13.4964 41.476 13.5034 41.14 13.5174C40.818 13.5314 40.545 13.5454 40.321 13.5594V16.6464H42.4ZM42.358 23.2824C41.532 23.2824 40.769 23.2404 40.069 23.1564C39.369 23.0864 38.816 23.0024 38.41 22.9044V12.2784C38.816 12.1804 39.369 12.0964 40.069 12.0264C40.769 11.9424 41.532 11.9004 42.358 11.9004C42.932 11.9004 43.492 11.9494 44.038 12.0474C44.584 12.1454 45.067 12.3134 45.487 12.5514C45.907 12.7754 46.243 13.0904 46.495 13.4964C46.761 13.8884 46.894 14.3784 46.894 14.9664C46.894 15.4984 46.761 15.9534 46.495 16.3314C46.229 16.7094 45.872 17.0034 45.424 17.2134C46.026 17.4234 46.502 17.7384 46.852 18.1584C47.216 18.5644 47.398 19.1384 47.398 19.8804C47.398 20.5384 47.265 21.0844 46.999 21.5184C46.747 21.9524 46.39 22.3024 45.928 22.5684C45.48 22.8344 44.948 23.0164 44.332 23.1144C43.716 23.2264 43.058 23.2824 42.358 23.2824Z" fill="white"/>
<path d="M49.3059 17.6544C49.3059 16.6884 49.4459 15.8484 49.7259 15.1344C50.0059 14.4064 50.3769 13.8044 50.8389 13.3284C51.3009 12.8524 51.8329 12.4954 52.4349 12.2574C53.0369 12.0194 53.6529 11.9004 54.2829 11.9004C55.7529 11.9004 56.8799 12.3624 57.6639 13.2864C58.4479 14.1964 58.8399 15.5894 58.8399 17.4654C58.8399 17.5494 58.8399 17.6614 58.8399 17.8014C58.8399 17.9274 58.8329 18.0464 58.8189 18.1584H51.3429C51.4269 19.2924 51.7559 20.1534 52.3299 20.7414C52.9039 21.3294 53.7999 21.6234 55.0179 21.6234C55.7039 21.6234 56.2779 21.5674 56.7399 21.4554C57.2159 21.3294 57.5729 21.2104 57.8109 21.0984L58.0839 22.7364C57.8459 22.8624 57.4259 22.9954 56.8239 23.1354C56.2359 23.2754 55.5639 23.3454 54.8079 23.3454C53.8559 23.3454 53.0299 23.2054 52.3299 22.9254C51.6439 22.6314 51.0769 22.2324 50.6289 21.7284C50.1809 21.2244 49.8449 20.6294 49.6209 19.9434C49.4109 19.2434 49.3059 18.4804 49.3059 17.6544ZM56.8029 16.5834C56.8169 15.7014 56.5929 14.9804 56.1309 14.4204C55.6829 13.8464 55.0599 13.5594 54.2619 13.5594C53.8139 13.5594 53.4149 13.6504 53.0649 13.8324C52.7289 14.0004 52.4419 14.2244 52.2039 14.5044C51.9659 14.7844 51.7769 15.1064 51.6369 15.4704C51.5109 15.8344 51.4269 16.2054 51.3849 16.5834H56.8029Z" fill="white"/>
<path d="M63.4093 13.4334C63.8433 13.0834 64.3473 12.8174 64.9213 12.6354C65.5093 12.4394 66.0693 12.3414 66.6013 12.3414C68.1693 12.3414 69.3523 12.8244 70.1503 13.7904C70.9623 14.7424 71.3683 16.0724 71.3683 17.7804C71.3683 18.5084 71.2703 19.2084 71.0743 19.8804C70.8783 20.5524 70.5703 21.1474 70.1503 21.6654C69.7443 22.1834 69.2263 22.5964 68.5963 22.9044C67.9663 23.2124 67.2173 23.3664 66.3493 23.3664C65.3553 23.3664 64.5293 23.1844 63.8713 22.8204C63.2133 22.4564 62.6883 21.9594 62.2963 21.3294C61.9183 20.6994 61.6523 19.9644 61.4983 19.1244C61.3443 18.2844 61.2673 17.3954 61.2673 16.4574C61.2673 15.2394 61.3513 14.1054 61.5193 13.0554C61.7013 12.0054 62.0233 11.0814 62.4853 10.2834C62.9473 9.48536 63.5843 8.82736 64.3963 8.30936C65.2223 7.77736 66.2793 7.42036 67.5673 7.23836C67.9453 7.18236 68.2743 7.14036 68.5543 7.11236C68.8483 7.07036 69.1003 7.03536 69.3103 7.00736C69.5343 6.97936 69.7373 6.95136 69.9193 6.92336C70.1013 6.88136 70.2903 6.83936 70.4863 6.79736L70.6963 8.56136C70.5983 8.58936 70.4933 8.61036 70.3813 8.62436C70.2833 8.63836 70.1363 8.65936 69.9403 8.68736C69.7583 8.71536 69.5063 8.75036 69.1843 8.79236C68.8763 8.83436 68.4703 8.88336 67.9663 8.93936C66.5803 9.09336 65.5163 9.51336 64.7743 10.1994C64.0323 10.8854 63.5773 11.9634 63.4093 13.4334ZM63.2833 16.7724C63.2833 17.4304 63.3253 18.0534 63.4093 18.6414C63.5073 19.2294 63.6683 19.7474 63.8923 20.1954C64.1303 20.6434 64.4453 21.0004 64.8373 21.2664C65.2293 21.5184 65.7333 21.6444 66.3493 21.6444C66.8813 21.6444 67.3363 21.5464 67.7143 21.3504C68.0923 21.1404 68.4003 20.8604 68.6383 20.5104C68.8763 20.1604 69.0513 19.7544 69.1633 19.2924C69.2753 18.8164 69.3313 18.3124 69.3313 17.7804C69.3313 17.3044 69.2823 16.8424 69.1843 16.3944C69.1003 15.9464 68.9393 15.5474 68.7013 15.1974C68.4633 14.8474 68.1413 14.5674 67.7353 14.3574C67.3433 14.1474 66.8463 14.0424 66.2443 14.0424C65.6563 14.0424 65.0893 14.1684 64.5433 14.4204C64.0113 14.6724 63.5983 14.9804 63.3043 15.3444C63.2903 15.4984 63.2833 15.7154 63.2833 15.9954C63.2833 16.2754 63.2833 16.5344 63.2833 16.7724Z" fill="white"/>
<path d="M78.8806 23.3454C77.9986 23.3454 77.2216 23.2054 76.5496 22.9254C75.8916 22.6454 75.3316 22.2534 74.8696 21.7494C74.4216 21.2454 74.0856 20.6504 73.8616 19.9644C73.6376 19.2644 73.5256 18.4944 73.5256 17.6544C73.5256 16.8144 73.6446 16.0444 73.8826 15.3444C74.1346 14.6444 74.4846 14.0424 74.9326 13.5384C75.3806 13.0204 75.9266 12.6214 76.5706 12.3414C77.2286 12.0474 77.9566 11.9004 78.7546 11.9004C79.2446 11.9004 79.7346 11.9424 80.2246 12.0264C80.7146 12.1104 81.1836 12.2434 81.6316 12.4254L81.1906 14.0844C80.8966 13.9444 80.5536 13.8324 80.1616 13.7484C79.7836 13.6644 79.3776 13.6224 78.9436 13.6224C77.8516 13.6224 77.0116 13.9654 76.4236 14.6514C75.8496 15.3374 75.5626 16.3384 75.5626 17.6544C75.5626 18.2424 75.6256 18.7814 75.7516 19.2714C75.8916 19.7614 76.1016 20.1814 76.3816 20.5314C76.6756 20.8814 77.0466 21.1544 77.4946 21.3504C77.9426 21.5324 78.4886 21.6234 79.1326 21.6234C79.6506 21.6234 80.1196 21.5744 80.5396 21.4764C80.9596 21.3784 81.2886 21.2734 81.5266 21.1614L81.7996 22.7994C81.6876 22.8694 81.5266 22.9394 81.3166 23.0094C81.1066 23.0654 80.8686 23.1144 80.6026 23.1564C80.3366 23.2124 80.0496 23.2544 79.7416 23.2824C79.4476 23.3244 79.1606 23.3454 78.8806 23.3454Z" fill="white"/>
<path d="M91.9109 12.1734V13.8114H88.3619V23.0934H86.4089V13.8114H82.8599V12.1734H91.9109Z" fill="white"/>
<path d="M97.6206 21.6864C98.0826 21.6864 98.4886 21.6794 98.8386 21.6654C99.2026 21.6374 99.5036 21.5954 99.7416 21.5394V18.2844C99.6016 18.2144 99.3706 18.1584 99.0486 18.1164C98.7406 18.0604 98.3626 18.0324 97.9146 18.0324C97.6206 18.0324 97.3056 18.0534 96.9696 18.0954C96.6476 18.1374 96.3466 18.2284 96.0666 18.3684C95.8006 18.4944 95.5766 18.6764 95.3946 18.9144C95.2126 19.1384 95.1216 19.4394 95.1216 19.8174C95.1216 20.5174 95.3456 21.0074 95.7936 21.2874C96.2416 21.5534 96.8506 21.6864 97.6206 21.6864ZM97.4526 11.9004C98.2366 11.9004 98.8946 12.0054 99.4266 12.2154C99.9726 12.4114 100.407 12.6984 100.729 13.0764C101.065 13.4404 101.303 13.8814 101.443 14.3994C101.583 14.9034 101.653 15.4634 101.653 16.0794V22.9044C101.485 22.9324 101.247 22.9744 100.939 23.0304C100.645 23.0724 100.309 23.1144 99.9306 23.1564C99.5526 23.1984 99.1396 23.2334 98.6916 23.2614C98.2576 23.3034 97.8236 23.3244 97.3896 23.3244C96.7736 23.3244 96.2066 23.2614 95.6886 23.1354C95.1706 23.0094 94.7226 22.8134 94.3446 22.5474C93.9666 22.2674 93.6726 21.9034 93.4626 21.4554C93.2526 21.0074 93.1476 20.4684 93.1476 19.8384C93.1476 19.2364 93.2666 18.7184 93.5046 18.2844C93.7566 17.8504 94.0926 17.5004 94.5126 17.2344C94.9326 16.9684 95.4226 16.7724 95.9826 16.6464C96.5426 16.5204 97.1306 16.4574 97.7466 16.4574C97.9426 16.4574 98.1456 16.4714 98.3556 16.4994C98.5656 16.5134 98.7616 16.5414 98.9436 16.5834C99.1396 16.6114 99.3076 16.6394 99.4476 16.6674C99.5876 16.6954 99.6856 16.7164 99.7416 16.7304V16.1844C99.7416 15.8624 99.7066 15.5474 99.6366 15.2394C99.5666 14.9174 99.4406 14.6374 99.2586 14.3994C99.0766 14.1474 98.8246 13.9514 98.5026 13.8114C98.1946 13.6574 97.7886 13.5804 97.2846 13.5804C96.6406 13.5804 96.0736 13.6294 95.5836 13.7274C95.1076 13.8114 94.7506 13.9024 94.5126 14.0004L94.2816 12.3834C94.5336 12.2714 94.9536 12.1664 95.5416 12.0684C96.1296 11.9564 96.7666 11.9004 97.4526 11.9004Z" fill="white"/>
<path d="M114.073 12.1734V23.0934H112.183V14.7774C111.763 15.3094 111.301 15.9324 110.797 16.6464C110.293 17.3604 109.789 18.1024 109.285 18.8724C108.781 19.6284 108.298 20.3774 107.836 21.1194C107.374 21.8614 106.975 22.5194 106.639 23.0934H104.896V12.1734H106.786V20.0274C107.15 19.4254 107.563 18.7674 108.025 18.0534C108.487 17.3254 108.963 16.6114 109.453 15.9114C109.957 15.1974 110.454 14.5184 110.944 13.8744C111.448 13.2164 111.917 12.6494 112.351 12.1734H114.073Z" fill="white"/>
<path d="M121.228 13.8114C121.228 14.2734 121.214 14.7704 121.186 15.3024C121.172 15.8204 121.137 16.3454 121.081 16.8774C121.025 17.3954 120.948 17.9134 120.85 18.4314C120.752 18.9354 120.626 19.4114 120.472 19.8594C120.318 20.3074 120.122 20.7274 119.884 21.1194C119.66 21.5114 119.38 21.8614 119.044 22.1694C118.708 22.4634 118.316 22.7154 117.868 22.9254C117.42 23.1214 116.895 23.2474 116.293 23.3034L116.02 21.6654C116.706 21.5254 117.245 21.2664 117.637 20.8884C118.043 20.5104 118.365 20.0484 118.603 19.5024C118.813 19.0264 118.967 18.4874 119.065 17.8854C119.163 17.2834 119.233 16.6604 119.275 16.0164C119.317 15.3584 119.338 14.7004 119.338 14.0424C119.352 13.3844 119.359 12.7614 119.359 12.1734H126.625V23.0934H124.672V13.8114H121.228Z" fill="white"/>
</svg>
